<?xml version="1.0" encoding="UTF-8" standalone="no"?>
<svg width="30px" height="31px" viewBox="0 0 30 31" version="1.1" xmlns="http://www.w3.org/2000/svg" xmlns:xlink="http://www.w3.org/1999/xlink">
    <!-- Generator: Sketch 3.8.3 (29802) - http://www.bohemiancoding.com/sketch -->
    <title>Page 1</title>
    <desc>Created with Sketch.</desc>
    <defs></defs>
    <g id="Page-1" stroke="none" stroke-width="1" fill="none" fill-rule="evenodd">
        <g id="Artboard-1" transform="translate(-44.000000, -46.000000)" fill="#8291A3">
            <g id="Group">
                <g id="Page-1" transform="translate(44.202335, 46.692607)">
                    <path d="M29.1201518,26.1248239 L17.9059087,14.9105808 L29.0013476,3.81514186 C29.8329771,2.98424123 29.8329771,1.55931952 29.0013476,0.728418886 C28.2892512,-0.222014823 26.8643295,-0.222014823 26.0334289,0.609614673 L14.8191857,11.8238578 L3.71062731,0.715299403 C2.87972668,-0.115601233 1.45480497,-0.115601233 0.623175477,0.715299403 C-0.207725159,1.54620004 -0.207725159,2.97112174 0.623175477,3.80202238 L11.7317339,14.9105808 L0.623175477,26.0191392 C-0.207725159,26.8500398 -0.207725159,28.2749615 0.623175477,29.1058622 C1.45480497,29.9374917 2.87972668,29.9374917 3.71062731,29.1058622 L14.8191857,17.9980326 L25.9146247,29.0934716 C26.7455253,29.9243722 28.170447,29.9243722 29.0013476,29.0934716 C29.9510525,28.3806463 29.9510525,26.9557246 29.1201518,26.1248239" id="Fill-1"></path>
                </g>
            </g>
        </g>
    </g>
</svg>