<?xml version="1.0" encoding="UTF-8" standalone="no"?>
<svg width="48px" height="32px" viewBox="0 0 48 32" version="1.1" xmlns="http://www.w3.org/2000/svg" xmlns:xlink="http://www.w3.org/1999/xlink">
    <!-- Generator: Sketch 3.8.3 (29802) - http://www.bohemiancoding.com/sketch -->
    <title>Page 1</title>
    <desc>Created with Sketch.</desc>
    <defs>
        <polygon id="path-1" points="47.2174286 5.33142857 47.2174286 0 0 0 0 5.33142857 47.2174286 5.33142857"></polygon>
        <polygon id="path-3" points="47.2174286 5.13428571 47.2174286 0 4.64658074e-20 0 0 5.13428571 47.2174286 5.13428571"></polygon>
        <polygon id="path-5" points="47.2174286 5.33142857 47.2174286 0 4.64658074e-20 7.61295788e-16 0 5.33142857 47.2174286 5.33142857"></polygon>
    </defs>
    <g id="Page-1" stroke="none" stroke-width="1" fill="none" fill-rule="evenodd">
        <g id="Artboard-1-Copy" transform="translate(-41.000000, -34.000000)">
            <g id="Page-1" transform="translate(41.000000, 34.000000)">
                <g id="Group-3" transform="translate(0.000000, 0.738600)">
                    <mask id="mask-2" fill="white">
                        <use xlink:href="#path-1"></use>
                    </mask>
                    <g id="Clip-2"></g>
                    <path d="M2.56714286,5.33142857 L44.6288571,5.33142857 C46.0114286,5.33142857 47.196,4.14685714 47.196,2.76428571 C47.394,1.18457143 46.2085714,0 44.8268571,0 L2.56714286,0 C1.18457143,0 0,1.18457143 0,2.56714286 C0,4.14685714 1.18457143,5.33142857 2.56714286,5.33142857" id="Fill-1" fill="#8291A3" mask="url(#mask-2)"></path>
                </g>
                <g id="Group-6" transform="translate(0.000000, 13.595743)">
                    <mask id="mask-4" fill="white">
                        <use xlink:href="#path-3"></use>
                    </mask>
                    <g id="Clip-5"></g>
                    <path d="M44.8268571,0 L2.56714286,0 C1.18542857,0 0,1.18457143 0,2.56714286 C0,3.94971429 1.18542857,5.13428571 2.56714286,5.13428571 L44.6297143,5.13428571 C46.0114286,5.13428571 47.1968571,3.94971429 47.1968571,2.56714286 C47.394,1.18457143 46.2094286,0 44.8268571,0" id="Fill-4" fill="#8291A3" mask="url(#mask-4)"></path>
                </g>
                <g id="Group-9" transform="translate(0.000000, 26.452886)">
                    <mask id="mask-6" fill="white">
                        <use xlink:href="#path-5"></use>
                    </mask>
                    <g id="Clip-8"></g>
                    <path d="M44.8268571,0 L2.56714286,0 C1.18542857,0 0,1.18457143 0,2.56714286 C0,4.14685714 1.18542857,5.33142857 2.56714286,5.33142857 L44.6297143,5.33142857 C46.0114286,5.33142857 47.1968571,4.14685714 47.1968571,2.76428571 C47.394,1.18457143 46.2094286,0 44.8268571,0" id="Fill-7" fill="#8291A3" mask="url(#mask-6)"></path>
                </g>
            </g>
        </g>
    </g>
</svg>