<?xml version="1.0" encoding="UTF-8" standalone="no"?>
<svg width="25px" height="26px" viewBox="0 0 25 26" version="1.1" xmlns="http://www.w3.org/2000/svg" xmlns:xlink="http://www.w3.org/1999/xlink">
    <!-- Generator: Sketch 3.8.3 (29802) - http://www.bohemiancoding.com/sketch -->
    <title>Page 1</title>
    <desc>Created with Sketch.</desc>
    <defs>
        <polygon id="path-1" points="24.6906059 24.9025459 24.6906059 0.314663702 0.000133407449 0.314663702 0.000133407449 24.9025459 24.6906059 24.9025459"></polygon>
    </defs>
    <g id="Page-1" stroke="none" stroke-width="1" fill="none" fill-rule="evenodd">
        <g id="Artboard-1" transform="translate(-23.000000, -138.000000)">
            <g id="Group">
                <g id="Page-1" transform="translate(23.035019, 138.210117)">
                    <g id="Group-3" transform="translate(0.000000, 0.130117)">
                        <mask id="mask-2" fill="white">
                            <use xlink:href="#path-1"></use>
                        </mask>
                        <g id="Clip-2"></g>
                        <path d="M12.2940745,18.9605781 C8.810806,18.9605781 5.94210117,16.0918733 5.94210117,12.6086048 C5.94210117,9.1253363 8.810806,6.25663146 12.2940745,6.25663146 C15.777343,6.25663146 18.6460478,9.1253363 18.6460478,12.6086048 C18.6460478,16.0918733 15.777343,18.9605781 12.2940745,18.9605781 M23.5634464,10.9694719 L21.4120289,10.7644691 C21.002468,10.7644691 20.5924625,10.4571873 20.4901834,9.94490272 C20.3874597,9.53534186 20.1829016,9.02305725 19.9778988,8.6130517 C19.7728961,8.20304614 19.8756198,7.69120623 20.0801779,7.38347971 L21.5147526,5.84707059 C21.9243135,5.43706504 21.8220345,4.71977765 21.4120289,4.31021679 L20.5924625,3.49065036 C20.1829016,3.0806448 19.5678933,3.0806448 19.0556087,3.38792663 L17.4164758,4.71977765 C17.109194,5.02750417 16.5969094,5.02750417 16.1873485,4.82250139 C15.777343,4.71977765 15.3677821,4.61749861 14.8554975,4.41249583 C14.4454919,4.31021679 14.1382101,3.90021123 14.1382101,3.49065036 L13.9332073,1.33923291 C13.9332073,0.724224569 13.4209227,0.314663702 12.8063591,0.314663702 L11.6795108,0.314663702 C11.0645025,0.314663702 10.6549416,0.724224569 10.5522179,1.33923291 L10.4499389,3.38792663 C10.4499389,3.79793218 10.142657,4.20749305 9.63037243,4.41249583 C9.11808783,4.51521957 8.70808227,4.71977765 8.2985214,4.92478043 C7.88851584,5.12978321 7.37623124,5.12978321 7.06894942,4.82250139 L5.5325403,3.49065036 C5.0202557,3.0806448 4.40524736,3.0806448 3.99568649,3.49065036 L3.17612007,4.31021679 C2.76611451,4.71977765 2.76611451,5.43706504 3.07339633,5.84707059 L4.40524736,7.38347971 C4.71252918,7.69120623 4.71252918,8.20304614 4.5079711,8.6130517 C4.30296832,9.02305725 4.09796554,9.53534186 3.89296276,10.0471818 C3.79068371,10.4571873 3.38067815,10.7644691 2.97111729,10.8671929 L1.02470261,10.9694719 C0.409694275,10.9694719 0.000133407449,11.4817565 0.000133407449,12.0963202 L0.000133407449,13.2231684 C0.000133407449,13.8381768 0.409694275,14.2477376 1.02470261,14.3504614 L2.97111729,14.4527404 C3.38067815,14.4527404 3.79068371,14.7600222 3.99568649,15.2723068 C4.20068927,15.7845914 4.40524736,16.296876 4.61025014,16.7068816 C4.81525292,17.1164425 4.81525292,17.6287271 4.5079711,17.9360089 L3.27839911,19.3705837 C2.86883824,19.7801445 2.97111729,20.4974319 3.38067815,20.9069928 L4.20068927,21.7265592 C4.61025014,22.1365648 5.22481379,22.1365648 5.73709839,21.8292829 L7.2739522,20.4974319 C7.58123402,20.1901501 8.09351862,20.1901501 8.50352418,20.3947082 C8.70808227,20.599711 9.22036687,20.8047137 9.63037243,20.9069928 C10.040378,21.0097165 10.3476598,21.4192774 10.4499389,21.931562 L10.5522179,23.8784213 C10.5522179,24.492985 11.0645025,24.9025459 11.6795108,24.9025459 L12.8063591,24.9025459 C13.4209227,24.9025459 13.8309283,24.492985 13.9332073,23.8784213 L14.1382101,21.8292829 C14.1382101,21.4192774 14.4454919,21.0097165 14.8554975,20.9069928 C15.3677821,20.8047137 15.777343,20.599711 16.1873485,20.2924291 C16.5969094,20.0874263 17.109194,20.0874263 17.4164758,20.3947082 L18.9533296,21.7265592 C19.3633352,22.1365648 20.0801779,22.0342857 20.4901834,21.6242802 L21.3097499,20.8047137 C21.7193107,20.3947082 21.7193107,19.7801445 21.4120289,19.2678599 L20.0801779,17.6287271 C19.7728961,17.3214452 19.7728961,16.8091606 19.9778988,16.3991551 C20.1829016,15.9895942 20.3874597,15.5795887 20.4901834,15.0673041 C20.5924625,14.6577432 21.002468,14.3504614 21.5147526,14.2477376 L23.6661701,14.0427349 C24.2807337,14.0427349 24.6907393,13.5308949 24.6907393,12.9158866 L24.6907393,11.7890384 C24.5880156,11.4817565 24.1784547,10.9694719 23.5634464,10.9694719" id="Fill-1" fill="#8291A3" mask="url(#mask-2)"></path>
                    </g>
                    <path d="M12.2940745,9.15299611 C14.2742857,9.15299611 15.879622,10.7583324 15.879622,12.7385436 C15.879622,14.7191996 14.2742857,16.3245359 12.2940745,16.3245359 C10.3138633,16.3245359 8.70808227,14.7191996 8.70808227,12.7385436 C8.70808227,10.7583324 10.3138633,9.15299611 12.2940745,9.15299611" id="Fill-4" fill="#8291A3"></path>
                </g>
            </g>
        </g>
    </g>
</svg>