<?xml version="1.0" encoding="UTF-8" standalone="no"?>
<svg width="25px" height="25px" viewBox="0 0 25 25" version="1.1" xmlns="http://www.w3.org/2000/svg" xmlns:xlink="http://www.w3.org/1999/xlink">
    <!-- Generator: Sketch 3.8.3 (29802) - http://www.bohemiancoding.com/sketch -->
    <title>Page 1</title>
    <desc>Created with Sketch.</desc>
    <defs>
        <polygon id="path-1" points="0.000222345748 11.7565314 24.5881045 11.7565314 24.5881045 0.119873078 0.000222345748 0.119873078"></polygon>
    </defs>
    <g id="Page-1" stroke="none" stroke-width="1" fill="none" fill-rule="evenodd">
        <g id="Artboard-1" transform="translate(-135.000000, -19.000000)">
            <g id="Group">
                <g id="Page-1" transform="translate(135.097276, 19.922179)">
                    <g id="Group-3" transform="translate(0.000000, 12.319364)">
                        <mask id="mask-2" fill="white">
                            <use xlink:href="#path-1"></use>
                        </mask>
                        <g id="Clip-2"></g>
                        <path d="M16.5969983,0.119873078 C16.5969983,0.119873078 15.5724291,1.32382898 12.0891606,1.32382898 C9.32317954,1.32382898 7.99132852,0.119873078 7.99132852,0.119873078 C3.38076709,1.82544099 0.000222345748,2.72808134 0.000222345748,6.84112563 C0.000222345748,6.84112563 0.922067815,11.756662 12.6014452,11.756662 C23.4612563,11.756662 24.5881045,6.84112563 24.5881045,6.84112563 C24.5881045,2.22646933 21.2071151,1.82544099 16.5969983,0.119873078" id="Fill-1" fill="#8291A3" mask="url(#mask-2)"></path>
                    </g>
                    <path d="M12.2940745,0 C15.2930739,0 17.7237576,2.69485825 17.7237576,6.01890865 C17.7237576,9.34295905 15.2930739,12.0378173 12.2940745,12.0378173 C9.29507504,12.0378173 6.86439133,9.34295905 6.86439133,6.01890865 C6.86439133,2.69485825 9.29507504,0 12.2940745,0" id="Fill-4" fill="#8291A3"></path>
                </g>
            </g>
        </g>
    </g>
</svg>